<svg width="125" height="52" viewBox="0 0 125 52" fill="none" xmlns="http://www.w3.org/2000/svg">
    <path d="M8.928 44.192C7.552 44.192 6.48 43.968 5.712 43.52C4.976 43.072 4.464 42.448 4.176 41.648C3.888 40.816 3.744 39.888 3.744 38.864V22.832H0V20.768L3.744 19.76L4.896 14.768H7.68V20.24H14.448V21.584L13.776 22.832H7.68V38.528C7.68 39.52 7.872 40.176 8.256 40.496C8.672 40.784 9.28 40.928 10.08 40.928C10.976 40.928 11.792 40.848 12.528 40.688C13.264 40.496 13.728 40.368 13.92 40.304L14.4 41.84C13.632 42.544 12.736 43.12 11.712 43.568C10.688 43.984 9.76 44.192 8.928 44.192Z" fill="#194a33"/>
    <path d="M26.1628 44.432C23.7948 44.432 21.8428 43.936 20.3067 42.944C18.7708 41.92 17.6348 40.528 16.8988 38.768C16.1628 37.008 15.7948 35.024 15.7948 32.816C15.7948 30.192 16.2428 27.904 17.1388 25.952C18.0667 24 19.3307 22.496 20.9307 21.44C22.5627 20.352 24.4347 19.808 26.5467 19.808C27.9548 19.808 29.1548 20.048 30.1467 20.528C31.1388 21.008 31.9387 21.664 32.5467 22.496C33.1867 23.328 33.6507 24.272 33.9388 25.328C34.2588 26.352 34.4188 27.424 34.4188 28.544C34.4188 30.272 34.2588 31.424 33.9388 32C33.6188 32.544 33.0107 32.816 32.1147 32.816H20.0667C20.0667 34.32 20.3068 35.696 20.7868 36.944C21.2668 38.192 22.0508 39.2 23.1388 39.968C24.2588 40.704 25.7467 41.072 27.6028 41.072C29.3628 41.072 30.7228 40.896 31.6828 40.544C32.6748 40.192 33.2347 39.984 33.3628 39.92L34.0348 41.264C33.9388 41.36 33.5548 41.664 32.8828 42.176C32.2428 42.688 31.3468 43.2 30.1947 43.712C29.0747 44.192 27.7308 44.432 26.1628 44.432ZM20.1147 30.608L30.3868 30.224C30.4827 29.648 30.5308 29.008 30.5308 28.304C30.5308 26.48 30.2108 25.072 29.5707 24.08C28.9307 23.088 27.6987 22.592 25.8748 22.592C24.5627 22.592 23.4748 22.912 22.6108 23.552C21.7787 24.16 21.1548 25.072 20.7388 26.288C20.3547 27.472 20.1467 28.912 20.1147 30.608Z" fill="#194a33"/>
    <path d="M43.747 44.336C42.115 44.336 40.803 44.064 39.811 43.52C38.851 42.976 38.147 42.256 37.699 41.36C37.283 40.432 37.075 39.44 37.075 38.384C37.075 37.04 37.379 35.872 37.987 34.88C38.627 33.888 39.587 33.072 40.867 32.432C42.147 31.792 43.747 31.36 45.667 31.136L49.987 30.512V26.912C49.987 25.984 49.795 25.216 49.411 24.608C49.059 24 48.531 23.568 47.827 23.312C47.155 23.024 46.307 22.88 45.283 22.88C44.483 22.88 43.811 22.944 43.267 23.072C42.723 23.168 42.403 23.232 42.307 23.264L41.587 27.68C41.555 27.712 41.427 27.776 41.203 27.872C40.979 27.968 40.595 28.016 40.051 28.016C39.507 28.016 38.995 27.824 38.515 27.44C38.067 27.024 37.843 26.48 37.843 25.808C37.843 24.816 38.211 23.936 38.947 23.168C39.715 22.4 40.643 21.776 41.731 21.296C42.819 20.784 43.907 20.416 44.995 20.192C46.083 19.936 46.963 19.808 47.635 19.808C49.011 19.808 50.163 20.064 51.091 20.576C52.019 21.056 52.723 21.712 53.203 22.544C53.683 23.376 53.923 24.304 53.923 25.328V40.736L57.331 41.408V43.232C57.235 43.264 56.979 43.36 56.563 43.52C56.179 43.68 55.651 43.84 54.979 44C54.339 44.128 53.587 44.192 52.723 44.192C51.827 44.192 51.203 43.952 50.851 43.472C50.531 42.992 50.339 42.496 50.275 41.984H50.083C49.603 42.368 49.027 42.736 48.355 43.088C47.715 43.44 47.011 43.744 46.243 44C45.475 44.224 44.643 44.336 43.747 44.336ZM45.667 41.312C46.883 41.312 47.907 41.168 48.739 40.88C49.571 40.56 49.987 40.4 49.987 40.4V32.816C48.003 32.944 46.371 33.2 45.091 33.584C43.811 33.968 42.851 34.496 42.211 35.168C41.603 35.808 41.299 36.64 41.299 37.664C41.299 40.096 42.755 41.312 45.667 41.312Z" fill="#194a33"/>
    <path d="M58.6575 51.92V49.904L61.9695 49.232V24.272L58.1295 23.6V21.632L65.2815 20.288L65.7615 22.16L65.8575 22.256C66.6255 21.616 67.6335 21.056 68.8815 20.576C70.1615 20.064 71.3935 19.808 72.5775 19.808C75.4255 19.808 77.6015 20.752 79.1055 22.64C80.6415 24.496 81.4095 27.216 81.4095 30.8C81.4095 33.456 80.9615 35.776 80.0655 37.76C79.2015 39.744 77.9855 41.28 76.4175 42.368C74.8495 43.456 73.0095 44 70.8975 44C70.0335 44 69.1375 43.856 68.2095 43.568C67.3135 43.248 66.5135 42.832 65.8095 42.32V42.608L65.9055 43.088V49.232L70.0335 49.808V51.92H58.6575ZM70.6575 41.216C72.9295 41.216 74.5615 40.48 75.5535 39.008C76.5775 37.536 77.0895 35.232 77.0895 32.096C77.0895 28.896 76.6095 26.608 75.6495 25.232C74.6895 23.856 73.0895 23.168 70.8495 23.168C69.9855 23.168 69.1535 23.232 68.3535 23.36C67.5535 23.456 66.7375 23.632 65.9055 23.888V40.16C66.4815 40.512 67.2015 40.784 68.0655 40.976C68.9615 41.136 69.8255 41.216 70.6575 41.216Z" fill="#194a33"/>
    <path d="M93.0946 44.432C90.8546 44.432 88.9826 43.952 87.4786 42.992C85.9746 42.032 84.8386 40.656 84.0706 38.864C83.3346 37.072 82.9666 34.944 82.9666 32.48C82.9666 30.752 83.2066 29.136 83.6866 27.632C84.1986 26.096 84.9186 24.752 85.8466 23.6C86.8066 22.416 87.9586 21.488 89.3026 20.816C90.6786 20.144 92.2146 19.808 93.9106 19.808C96.2146 19.808 98.1346 20.288 99.6706 21.248C101.207 22.176 102.343 23.504 103.079 25.232C103.847 26.96 104.231 29.008 104.231 31.376C104.231 33.232 103.991 34.96 103.511 36.56C103.063 38.128 102.375 39.504 101.447 40.688C100.519 41.872 99.3506 42.8 97.9426 43.472C96.5666 44.112 94.9506 44.432 93.0946 44.432ZM94.0066 41.648C95.5426 41.648 96.7426 41.28 97.6066 40.544C98.4706 39.776 99.0786 38.688 99.4306 37.28C99.7826 35.872 99.9586 34.192 99.9586 32.24C99.9586 30 99.7666 28.176 99.3826 26.768C98.9986 25.328 98.3586 24.272 97.4626 23.6C96.5666 22.928 95.3026 22.592 93.6706 22.592C91.8786 22.592 90.5186 22.96 89.5906 23.696C88.6626 24.4 88.0386 25.472 87.7186 26.912C87.4306 28.32 87.2866 30.096 87.2866 32.24C87.2866 34.224 87.4786 35.92 87.8626 37.328C88.2466 38.736 88.9186 39.808 89.8786 40.544C90.8706 41.28 92.2466 41.648 94.0066 41.648Z" fill="#194a33"/>
    <path d="M105.586 44V41.84L118.69 23.36V22.88H109.522L108.85 26.768H106.786L106.162 20.288H123.682V22.832L110.818 40.928V41.408H121.09L121.762 37.424H123.826L124.354 44H105.586Z" fill="#194a33"/>
    <path fill-rule="evenodd" clip-rule="evenodd" d="M24.4689 13.9621C20.6978 9.75304 18.9595 4.47873 19.4603 0.0291022C23.6736 -0.276621 28.5501 1.83311 32.3212 6.04214C36.0921 10.2516 37.8305 15.5255 37.3297 19.9756C37.1784 19.9867 37.0259 19.9941 36.873 19.9988C35.9784 18.5315 35.0581 17.1297 34.1212 15.8015C34.29 14.2012 34.26 12.5812 34.2048 10.9155C34.0827 12.3937 34.0055 13.9045 33.7617 15.2967C32.4496 13.4706 31.1086 11.79 29.7656 10.2769C29.6725 9.32657 29.4569 8.39358 29.2208 7.43693C29.3287 8.28936 29.4657 9.15399 29.4947 9.97412C27.7114 7.99521 25.9268 6.31386 24.2038 4.98158C25.2183 5.85787 26.2475 6.84636 27.2801 7.93747C26.6456 8.02288 25.9636 8.02398 25.2948 8.04814C26.0329 8.11748 26.7516 8.17338 27.4664 8.13547C28.8569 9.6214 30.2514 11.2919 31.6205 13.1232C30.445 13.1054 29.1973 12.8962 27.9682 12.7368C29.3033 13.0907 30.6048 13.4119 31.929 13.5392C33.3873 15.5212 34.8145 17.6847 36.1737 20C32.2445 19.8821 27.8993 17.7911 24.4689 13.9621ZM47.1936 15.1947C50.2328 11.8702 51.6719 7.69335 51.3254 4.16209C47.9868 3.90422 44.095 5.55911 41.0558 8.88358C39.6489 10.4231 38.5847 12.145 37.8818 13.9013C38.1134 15.4797 38.1961 17.0819 38.0979 18.6725C38.5649 17.9651 39.0379 17.2797 39.5163 16.6172C39.4006 15.3472 39.4428 14.0625 39.5059 12.741C39.5862 13.9143 39.6297 15.1127 39.8072 16.2178C40.869 14.7744 41.9515 13.4463 43.034 12.2511C43.1187 11.4973 43.3003 10.7582 43.4989 10.0005C43.4039 10.6765 43.2851 11.3616 43.2526 12.0121C44.6897 10.4494 46.1244 9.12201 47.5062 8.07157C46.6915 8.76273 45.8638 9.54289 45.0325 10.4048C45.5348 10.4747 46.0756 10.4783 46.6061 10.5002C46.0196 10.5526 45.4491 10.5942 44.8827 10.5611C43.7629 11.7344 42.6376 13.0543 41.5305 14.5018C42.4633 14.4924 43.4552 14.3308 44.4318 14.209C43.369 14.4849 42.3325 14.735 41.281 14.8306C40.1629 16.3156 39.0657 17.93 38.0138 19.6534C38.0116 19.6726 38.0095 19.6918 38.0074 19.711L37.9823 19.9344C41.0639 19.8117 44.4708 18.1736 47.1936 15.1947Z" fill="#8CBC4F"/>
    </svg>