<svg xmlns="http://www.w3.org/2000/svg" width="100" height="100" viewBox="0 0 107 107" fill="none"><path d="M53.3333 8C78.3467 8 98.6667 28.32 98.6667 53.3333C98.6667 78.3467 78.3467 98.6667 53.3333 98.6667C28.32 98.6667 8 78.3467 8 53.3333C8 28.32 28.32 8 53.3333 8ZM53.3333 0C23.8933 0 0 23.8933 0 53.3333C0 82.7733 23.8933 106.667 53.3333 106.667C82.7733 106.667 106.667 82.7733 106.667 53.3333C106.667 23.8933 82.7733 0 53.3333 0Z" fill="#194A33"></path><path d="M40.16 70.5067C39.1467 70.5067 38.1333 70.1333 37.3333 69.3333C35.7867 67.7867 35.7867 65.2267 37.3333 63.68L49.3333 51.68V21.44C49.3333 19.2533 51.1467 17.44 53.3333 17.44C55.52 17.44 57.3333 19.2533 57.3333 21.44V53.3333C57.3333 54.4 56.9067 55.4133 56.16 56.16L42.9867 69.3333C42.1867 70.1333 41.1733 70.5067 40.16 70.5067Z" fill="#8CBC4F"></path></svg>
