<svg xmlns="http://www.w3.org/2000/svg" width="100" height="100" viewBox="0 0 86 107" fill="none"><path d="M42.56 29.3333C48.4267 29.3333 53.2267 34.1333 53.2267 40C53.2267 45.8667 48.4267 50.6667 42.56 50.6667C36.6933 50.6667 31.8933 45.8667 31.8933 40C31.8933 34.1333 36.6933 29.3333 42.56 29.3333ZM42.56 21.3333C32.2667 21.3333 23.8933 29.7067 23.8933 40C23.8933 50.2933 32.2667 58.6667 42.56 58.6667C52.8533 58.6667 61.2267 50.2933 61.2267 40C61.2267 29.7067 52.8533 21.3333 42.56 21.3333Z" fill="#8CBC4F"></path><path d="M42.56 8C61.6533 8 77.12 23.52 77.12 42.56C77.12 56.1067 66.8267 75.0933 48.2133 96.0533C46.72 97.7067 44.7467 98.6133 42.56 98.6133C40.3733 98.6133 38.3467 97.7067 36.9067 96.0533C18.24 75.04 8 56.0533 8 42.56C8 23.4667 23.52 8 42.56 8ZM42.56 0C19.04 0 0 19.04 0 42.56C0 63.04 18.3467 87.2 30.9333 101.387C34.0267 104.907 38.2933 106.613 42.56 106.613C46.8267 106.613 51.0933 104.853 54.1867 101.387C66.7733 87.2 85.12 63.04 85.12 42.56C85.12 19.04 66.08 0 42.56 0Z" fill="#194A33"></path></svg>
