<svg xmlns="http://www.w3.org/2000/svg" width="100" height="100" viewBox="0 0 107 86" fill="none"><path d="M90.6667 8C95.0933 8 98.6667 11.5733 98.6667 16V69.3333C98.6667 73.76 95.0933 77.3333 90.6667 77.3333H16C11.5733 77.3333 8 73.76 8 69.3333V16C8 11.5733 11.5733 8 16 8H90.6667ZM90.6667 0H16C7.14667 0 0 7.14667 0 16V69.3333C0 78.1867 7.14667 85.3333 16 85.3333H90.6667C99.52 85.3333 106.667 78.1867 106.667 69.3333V16C106.667 7.14667 99.52 0 90.6667 0Z" fill="#194A33"></path><path d="M53.3333 48.8C49.4933 48.8 45.6 47.68 42.24 45.44L19.0933 30.0267C17.28 28.8 16.7467 26.2933 17.9733 24.48C19.2 22.6667 21.7067 22.1333 23.52 23.36L46.6667 38.7733C50.72 41.4933 55.9467 41.4933 60 38.7733L83.1467 23.36C84.96 22.1333 87.4667 22.6133 88.6933 24.48C89.92 26.3467 89.44 28.8 87.5733 30.0267L64.4267 45.44C61.0667 47.68 57.1733 48.8 53.3333 48.8Z" fill="#8CBC4F"></path></svg>
